<svg xmlns="http://www.w3.org/2000/svg" width="188.035" height="50.125" viewBox="0 0 188.035 50.125"><g stroke-width=".125" stroke-miterlimit="10"><path fill="#5D7491" stroke="#4F5776" d="M168.346 6.737c1.481-1.537 3.577-2.348 5.673-2.627 3.326-.503 6.679.027 9.949.614.14 2.124.335 4.221.559 6.345-2.292-.866-4.724-1.677-7.21-1.537-1.286.084-2.627.614-3.326 1.732-.419.782-.112 1.733.419 2.376 1.202 1.509 2.878 2.515 4.276 3.828 1.901 1.817 4.136 3.41 5.394 5.785 1.453 2.795.727 6.428-1.537 8.58-1.621 1.565-3.829 2.348-6.037 2.6-3.354.475-6.735-.141-10.005-.867-.922-.167-1.761-.643-2.571-1.09 1.565-1.313 2.99-2.822 4.583-4.107 1.174.027 2.32.559 3.521.586 1.51.141 3.214.057 4.472-.922 1.062-.811 1.006-2.516.056-3.409-2.18-2.292-4.751-4.192-7.043-6.372-1.285-1.258-2.543-2.684-3.018-4.472-.67-2.46.057-5.226 1.845-7.043zM164.098 4.418c2.096.056 4.192.083 6.288.027-2.236 1.118-4.081 3.103-4.556 5.617-.279 1.929-.224 4.053.811 5.758 1.09 1.789 2.683 3.158 4.22 4.527-.056 2.543-.196 5.114-.811 7.602-.615-.14-1.202-.391-1.816-.363-1.621 1.369-3.13 2.879-4.639 4.332-.56.531.224 1.117.503 1.565-4.081 1.257-8.496 1.48-12.661.614-.782-.056-1.062-.811-1.453-1.342-2.264-3.549-4.667-7.015-6.792-10.62 0-2.207.196-4.415.392-6.595 2.515-3.55 5.366-6.819 7.993-10.285-.279 5.646-.67 11.263-.978 16.908-.028 1.789.056 3.857 1.425 5.198 1.397 1.286 3.41 1.537 5.227 1.453 1.76-.056 3.689-.643 4.723-2.18 1.118-1.621 1.146-3.688 1.313-5.562.364-5.559.755-11.093.811-16.654z"/><path fill="#29A2DC" stroke="#0B96CE" d="M61 5.927c2.375-.42 4.723-.922 7.07-1.537-.112 1.956-.167 3.885-.223 5.841 1.9 0 3.801 0 5.701-.027-.083 1.872-.167 3.717-.223 5.562l-5.673-.028c-.112 2.432-.28 4.835-.363 7.238-.028 1.453-.279 2.963.14 4.388.14.699.838 1.09 1.509 1.146 1.537.111 3.019-.447 4.472-.755-.391 1.956-.754 3.912-1.09 5.896-3.13.699-6.54 1.23-9.642.057-2.236-.895-3.186-3.41-3.046-5.646.251-4.108.475-8.217.699-12.297l-3.214-.028c.167-1.845.195-3.661.251-5.506h3.438c.082-1.425.137-2.878.194-4.304z"/><path fill="#5D7491" stroke="#4F5776" d="M76.342 4.418c2.907.056 5.813.056 8.72.027 3.186 5.646 6.764 11.067 10.117 16.602.727 1.173 1.425 2.403 2.208 3.549.251-6.735.643-13.442.727-20.178 2.375.056 4.723.056 7.099 0-.727 9.865-1.174 19.759-1.481 29.68-2.851-.084-5.702-.084-8.524-.027-1.816-3.298-3.968-6.4-5.98-9.586-2.208-3.41-4.304-6.875-6.484-10.341-.28 6.651-.587 13.303-.643 19.954-2.375-.084-4.779-.056-7.155 0 .671-6.036.783-12.129 1.118-18.193.167-3.83.307-7.659.278-11.487zM106.833 4.418c4.779.056 9.558.056 14.337.056 1.397 1.704 2.432 3.661 3.689 5.478-3.55-.056-7.071-.056-10.593 0-.14 2.124-.195 4.22-.307 6.316 4.192.084 8.356 0 12.521-.084-.14 1.9-.224 3.828-.335 5.757-4.192-.111-8.356-.167-12.521 0-.084 2.236-.196 4.444-.251 6.68 3.242.084 6.512-.111 9.754-.111-1.229 1.593-2.487 3.157-3.773 4.694-.335.392-.699.923-1.286.839l-12.604.028c.81-9.867 1.313-19.76 1.369-29.653zM122.316 4.418c2.935.056 5.897.083 8.832.027 1.341 3.047 3.046 5.925 4.555 8.887 2.292-2.989 4.863-5.784 6.987-8.914 2.823.083 5.618.027 8.44 0-3.605 4.778-7.462 9.362-11.012 14.169 3.187 5.227 6.568 10.368 9.95 15.511-2.962-.056-5.925-.084-8.859-.027-1.789-3.214-3.969-6.177-5.897-9.307-2.375 3.13-4.975 6.12-7.267 9.307-2.878-.057-5.757-.028-8.636.027 4.136-5.03 8.161-10.145 12.073-15.315-2.905-4.891-6.119-9.587-9.166-14.365z"/><path fill="#29A2DC" stroke="#0B96CE" d="M23.27 9.504h7.909c-.251 3.828-.447 7.686-.559 11.543-.195 2.962.028 6.008-.866 8.887-.754 2.432-3.046 3.94-5.338 4.695-3.102 1.062-6.428.839-9.614.447l-.028-6.148c2.012.392 4.276.559 6.064-.615 1.426-1.006 1.677-2.879 1.817-4.499.419-4.752.475-9.531.615-14.31zM41.408 10.035c3.018-.811 6.288-.783 9.278.14 2.292.699 4.248 2.376 5.282 4.527 1.202 2.348 1.286 5.143.782 7.686l-16.293.028c-.224 2.459.95 5.17 3.41 6.036 3.772 1.37 7.769-.056 11.402-1.201l-1.146 6.148c-3.354.866-6.847 1.146-10.285.894-2.599-.251-5.282-.95-7.238-2.738-1.929-1.677-3.019-4.137-3.438-6.624-.503-3.297.056-6.791 1.677-9.726 1.371-2.515 3.802-4.415 6.569-5.17z"/><path fill="#fff" stroke="#fff" d="M42.693 15.513c1.621-1.258 4.053-1.481 5.785-.308 1.062.782 1.286 2.18 1.426 3.382-3.019.028-6.065.028-9.111 0 .392-1.146.895-2.348 1.9-3.074z"/><path fill="#5D7491" stroke="#4F5776" d="M2.589 25.434c2.711-5.589 8.692-9.529 14.952-9.502-3.689.531-7.21 2.152-9.781 4.892-3.717 3.885-5.31 9.753-3.857 14.979-.308.195-.643.392-.978.615-.503.307-1.006.643-1.481 1.006-1.119-3.969-.672-8.301 1.145-11.99z"/><path fill="#B2DAEF" stroke="#B2DAEF" d="M3.902 35.803c1.621.195 3.41.559 4.388 1.984.895 1.118 1.006 2.627.671 3.968l-.112-.446c-1.118.391-2.18 1.062-3.382 1.118-1.509-.196-2.878-1.454-3.186-2.963-.111-1.062.251-2.096.643-3.046.335-.224.671-.42.978-.615z"/><path fill="#5D7491" stroke="#4F5776" d="M31.598 41.867c1.537-1.732 2.404-3.912 3.214-6.036-.727 4.304-3.186 8.3-6.735 10.899-3.019 2.235-6.847 3.438-10.62 3.325-4.388-.111-8.72-1.983-11.766-5.17.922-.363 1.817-.895 2.487-1.648 2.907 2.626 6.708 4.443 10.704 4.415 4.835.224 9.67-2.04 12.716-5.785z"/><path fill="#0B96CE" stroke="#0B96CE" d="M1.443 37.424c.475-.363.979-.699 1.481-1.006-.392.95-.754 1.983-.643 3.046.308 1.509 1.677 2.767 3.186 2.963 1.202-.057 2.264-.728 3.382-1.118l.112.446c-.196.504-.447 1.034-.783 1.482-.67.754-1.565 1.285-2.487 1.648-1.928.363-4.08-.531-4.975-2.319-.866-1.621-.614-3.829.727-5.142z"/></g><radialGradient id="a" cx="4.635" cy="40.383" r="4.635" fx="6.01" fy="38.498" gradientUnits="userSpaceOnUse"><stop offset="0" stop-color="#D5EBF8"/><stop offset=".132" stop-color="#CEE7F6"/><stop offset=".334" stop-color="#BBDBF0"/><stop offset=".581" stop-color="#97C6E6"/><stop offset=".86" stop-color="#5DACD9"/><stop offset="1" stop-color="#2C9ED2"/></radialGradient><circle fill="url(#a)" cx="4.635" cy="40.383" r="4.635"/><g fill="#5D7491" stroke="#4F5776" stroke-width=".125" stroke-miterlimit="10"><path d="M184.026 2.61v-2.247h-.839v-.301h2.019v.301h-.843v2.247h-.337zM185.542 2.61v-2.548h.507l.603 1.804.122.378.135-.409.61-1.772h.454v2.547h-.325v-2.131l-.74 2.132h-.304l-.737-2.169v2.168h-.325z"/></g></svg>